<svg width="123" height="34" viewBox="0 0 123 34" fill="none" xmlns="http://www.w3.org/2000/svg">
<mask id="mask0_5024_1233" style="mask-type:luminance" maskUnits="userSpaceOnUse" x="0" y="0" width="123" height="34">
<path d="M122.559 0H0V33.9998H122.559V0Z" fill="white"/>
</mask>
<g mask="url(#mask0_5024_1233)">
<path d="M34.9726 0.486208H46.9542V33.9998H34.9726V0.486208ZM49.802 33.9998H61.7835V14.8641H49.802V33.9998ZM49.3158 6.45961C49.3158 10.0367 52.1983 12.9192 55.7754 12.9192C59.3525 12.9192 62.235 10.0367 62.235 6.45961C62.235 2.88252 59.3525 0 55.7754 0C52.1983 0 49.3158 2.88252 49.3158 6.45961ZM33.0625 24.6577C33.0625 31.1867 27.7837 33.9998 20.6295 33.9998H0.0351562V0.486208H20.6295C25.9083 0.486208 31.6386 2.39631 31.6386 8.61282C31.6386 14.8293 30.1453 14.482 25.561 15.7323C29.6938 16.7394 33.0973 19.5525 33.0973 24.6577M11.982 12.9192H16.5662C17.8512 12.9192 19.1362 12.2594 19.1362 10.766C19.1362 9.27267 17.8512 8.61282 16.5662 8.61282H11.982V12.9192ZM20.1086 23.4421C20.1086 21.7751 18.6847 21.0458 17.2261 21.0458H11.9472V25.8385H17.2261C18.65 25.8385 20.1086 25.1091 20.1086 23.4421ZM110.613 25.3522H122.108V33.9651H63.6936L75.6751 14.8293H64.1798V6.21651H122.594L110.613 25.3522ZM103.91 14.8293H93.9774C93.6301 14.8293 93.3523 14.5515 93.3523 14.2042V7.88351C93.3523 7.3973 92.7271 7.22365 92.484 7.6404L81.9264 24.5535C81.718 24.9008 81.9264 25.3522 82.3779 25.3522H92.3104C92.6577 25.3522 92.9355 25.6301 92.9355 25.9774V32.2981C92.9355 32.7843 93.5606 32.9579 93.8037 32.5412L104.396 15.6281C104.604 15.2808 104.396 14.8293 103.945 14.8293" fill="black"/>
</g>
</svg>
