<svg width="24" height="24" viewBox="0 0 24 24" fill="none" xmlns="http://www.w3.org/2000/svg">
<path d="M7.16949 22.0401C6.67299 22.0401 6.24973 21.8633 5.89973 21.5098C5.54974 21.1563 5.37473 20.7313 5.37473 20.2348C5.37473 19.7383 5.55149 19.3151 5.90498 18.9651C6.25849 18.6151 6.68348 18.4401 7.17999 18.4401C7.67649 18.4401 8.09974 18.6168 8.44974 18.9703C8.79974 19.324 8.97474 19.749 8.97474 20.2453C8.97474 20.7418 8.79799 21.1651 8.44449 21.5151C8.09099 21.8651 7.66599 22.0401 7.16949 22.0401ZM17.1695 22.0401C16.673 22.0401 16.2497 21.8633 15.8997 21.5098C15.5497 21.1563 15.3747 20.7313 15.3747 20.2348C15.3747 19.7383 15.5515 19.3151 15.905 18.9651C16.2585 18.6151 16.6835 18.4401 17.18 18.4401C17.6765 18.4401 18.0997 18.6168 18.4497 18.9703C18.7997 19.324 18.9747 19.749 18.9747 20.2453C18.9747 20.7418 18.798 21.1651 18.4445 21.5151C18.091 21.8651 17.666 22.0401 17.1695 22.0401ZM5.98823 5.54009L8.63674 11.0368H15.8187L18.8242 5.54009H5.98823ZM5.16648 3.90859H19.72C20.1555 3.90859 20.4868 4.10551 20.714 4.49934C20.9412 4.89318 20.9427 5.28901 20.7187 5.68684L17.4455 11.5886C17.2542 11.9131 17.0082 12.1752 16.7077 12.3748C16.4074 12.5745 16.0747 12.6743 15.7097 12.6743H8.17748L6.81923 15.2086H18.2247C18.4559 15.2086 18.6497 15.2871 18.806 15.4441C18.9623 15.6009 19.0405 15.7954 19.0405 16.0276C19.0405 16.2596 18.9623 16.453 18.806 16.6078C18.6497 16.7627 18.4559 16.8401 18.2247 16.8401H6.92474C6.1929 16.8401 5.66682 16.5948 5.34648 16.1043C5.02615 15.6137 5.03232 15.0668 5.36498 14.4636L6.94699 11.5493L3.18298 3.56509H2.02473C1.79357 3.56509 1.59982 3.48659 1.44348 3.32959C1.28715 3.17276 1.20898 2.97826 1.20898 2.74609C1.20898 2.51409 1.28715 2.32068 1.44348 2.16584C1.59982 2.01101 1.79357 1.93359 2.02473 1.93359H3.70073C3.87073 1.93359 4.0249 1.97534 4.16323 2.05884C4.30157 2.14218 4.40232 2.26001 4.46548 2.41234L5.16648 3.90859Z" fill="black"/>
</svg>
