<svg width="170" height="170" viewBox="0 0 170 170" fill="none" xmlns="http://www.w3.org/2000/svg">
<path d="M133.886 60.931H88.5662C86.9974 60.931 85.7249 59.6586 85.7249 58.0898V29.1895C85.7249 26.9932 82.8431 26.1682 81.681 28.0333L33.3686 105.38C32.3692 106.983 33.5196 109.063 35.408 109.063H80.7107C82.2795 109.063 83.5519 110.336 83.5519 111.905V140.805C83.5519 143.001 86.428 143.826 87.5959 141.961L135.926 64.6147C136.925 63.0111 135.775 60.931 133.886 60.931Z" fill="#8152FE"/>
<path d="M102.145 79.2435C102.145 83.6245 98.5952 87.1745 94.2142 87.1745C89.8333 87.1745 86.2832 83.6245 86.2832 79.2435C86.2832 74.8626 89.8333 71.3125 94.2142 71.3125C98.5952 71.3125 102.145 74.8626 102.145 79.2435Z" fill="white"/>
<path d="M96.6812 79.2537C96.6812 81.8218 94.6011 83.9019 92.033 83.9019C89.4648 83.9019 87.3848 81.8218 87.3848 79.2537C87.3848 76.6855 89.4648 74.6055 92.033 74.6055C94.6011 74.6055 96.6812 76.6855 96.6812 79.2537Z" fill="black"/>
<path d="M81.9128 79.2435C81.9128 83.6245 78.3628 87.1745 73.9818 87.1745C69.6009 87.1745 66.0508 83.6245 66.0508 79.2435C66.0508 74.8626 69.6009 71.3125 73.9818 71.3125C78.3628 71.3125 81.9128 74.8626 81.9128 79.2435Z" fill="white"/>
<path d="M76.441 79.2537C76.441 81.8218 74.3609 83.9019 71.7928 83.9019C69.2246 83.9019 67.1445 81.8218 67.1445 79.2537C67.1445 76.6855 69.2246 74.6055 71.7928 74.6055C74.3609 74.6055 76.441 76.6855 76.441 79.2537Z" fill="black"/>
<path d="M61.1289 91.0938C66.9624 95.3411 74.1439 97.8511 81.9065 97.8511C89.669 97.8511 96.8563 95.3411 102.69 91.0938" stroke="black" stroke-width="2.25571" stroke-linecap="round"/>
</svg>
