<svg width="32" height="32" viewBox="0 0 32 32" fill="none" xmlns="http://www.w3.org/2000/svg">
<path d="M20.7686 17.2129C21.0676 17.4993 21.0782 17.9743 20.792 18.2734L16.5332 22.7207L16.5215 22.7324C16.52 22.7339 16.5181 22.7349 16.5166 22.7363C16.4513 22.8005 16.3755 22.8514 16.293 22.8877C16.2849 22.8912 16.2767 22.8942 16.2686 22.8975C16.2333 22.9115 16.1972 22.923 16.1602 22.9316C16.1058 22.9442 16.0494 22.9521 15.9912 22.9521C15.9334 22.9521 15.8773 22.944 15.8232 22.9316C15.7861 22.9231 15.7501 22.9115 15.7148 22.8975C15.7088 22.8951 15.7022 22.8941 15.6963 22.8916C15.6112 22.8552 15.5339 22.8022 15.4668 22.7363C15.4643 22.7339 15.4614 22.7319 15.459 22.7295C15.4559 22.7264 15.4522 22.7239 15.4492 22.7207L11.1904 18.2734C10.9041 17.9743 10.9148 17.4993 11.2139 17.2129C11.513 16.9268 11.987 16.9374 12.2734 17.2363L15.2412 20.334L15.2412 9.75C15.2413 9.33584 15.577 9 15.9912 9C16.4053 9.00008 16.7411 9.33589 16.7412 9.75L16.7412 20.334L19.708 17.2363C19.9944 16.9373 20.4694 16.9267 20.7686 17.2129Z" fill="black"/>
<path d="M16 4C22.6274 4 28 9.37258 28 16C28 22.6274 22.6274 28 16 28C9.37258 28 4 22.6274 4 16C4 9.37258 9.37258 4 16 4ZM16 5.5C10.201 5.5 5.5 10.201 5.5 16C5.5 21.799 10.201 26.5 16 26.5C21.799 26.5 26.5 21.799 26.5 16C26.5 10.201 21.799 5.5 16 5.5Z" fill="black"/>
</svg>
