<svg width="32" height="32" viewBox="0 0 32 32" fill="none" xmlns="http://www.w3.org/2000/svg">
<path d="M19.6716 10.2897C19.6716 9.25684 19.3371 8.43373 18.6682 7.8204C17.9996 7.20684 17.1171 6.90006 16.0209 6.90006C15.3367 6.90006 14.7162 7.04806 14.1596 7.34406C13.6027 7.63984 13.1223 8.07106 12.7186 8.63773C12.421 9.03062 12.0399 9.27284 11.5752 9.36439C11.1108 9.45595 10.6793 9.38573 10.2809 9.15373C9.83223 8.88817 9.56745 8.55173 9.48656 8.1444C9.40545 7.73706 9.5169 7.30495 9.8209 6.84806C10.5142 5.82317 11.3979 5.03628 12.4719 4.48739C13.5461 3.93851 14.7298 3.66406 16.0229 3.66406C18.1545 3.66406 19.8681 4.26251 21.1639 5.4594C22.4599 6.65628 23.1079 8.22162 23.1079 10.1554C23.1079 11.1987 22.8697 12.1856 22.3932 13.1161C21.917 14.0465 21.1545 15.033 20.1056 16.0754C19.3738 16.779 18.8661 17.353 18.5826 17.7974C18.299 18.2418 18.1048 18.7433 17.9999 19.3017C17.8855 19.7895 17.6492 20.189 17.2912 20.5001C16.9335 20.8112 16.5326 20.9667 16.0886 20.9667C15.6168 20.9667 15.2098 20.8075 14.8676 20.4891C14.5253 20.1704 14.3542 19.7958 14.3542 19.3654C14.3542 18.5787 14.5636 17.8107 14.9822 17.0614C15.4007 16.3118 16.0303 15.5702 16.8712 14.8364C17.8821 13.9548 18.6016 13.1612 19.0296 12.4554C19.4576 11.7494 19.6716 11.0275 19.6716 10.2897ZM16.0182 29.5554C15.3238 29.5554 14.7316 29.3093 14.2416 28.8171C13.7513 28.3251 13.5062 27.7326 13.5062 27.0397C13.5062 26.3468 13.7521 25.7553 14.2439 25.2651C14.7355 24.7748 15.3292 24.5297 16.0252 24.5297C16.7215 24.5297 17.3146 24.7758 17.8046 25.2681C18.2946 25.7601 18.5396 26.3525 18.5396 27.0454C18.5396 27.7385 18.293 28.3301 17.7999 28.8201C17.3068 29.3103 16.7129 29.5554 16.0182 29.5554Z" fill="black"/>
</svg>
